# xmcd
# 
# Track frame offsets:
#     150
#     17497
#     32012
#     48291
#     63582
#     81738
# 
# Disc length: 1242
# 
# Revision: 0
# Processed by: cddbd v1.5.2PL0 Copyright (c) Steve Scherf et al.
# Submitted via: fre:ac v1.0.27
# 
DISCID=4804d806
DTITLE=Trickum - Dancin' tonight
DYEAR=2011
DGENRE=Country
TTITLE0=Dancin' Tonight
TTITLE1=What I Never Knew
TTITLE2=Something I know
TTITLE3=Come Back
TTITLE4=Girl In Tennessee
TTITLE5=Forever Love You This Way
EXTD=
EXTT0=
EXTT1=
EXTT2=
EXTT3=
EXTT4=
EXTT5=
PLAYORDER=
